<?xml version="1.0" encoding="UTF-8"?>
<svg id="Layer_1" data-name="Layer 1" xmlns="http://www.w3.org/2000/svg" viewBox="0 0 191.95 51.39">
  <defs>
    <style>
      .cls-1, .cls-2 {
        fill: #231f20;
      }

      .cls-2 {
        stroke: #231f20;
        stroke-miterlimit: 10;
        stroke-width: 2px;
      }
    </style>
  </defs>
  <path class="cls-1" d="M5.27,38.27l-2.01,6.9c-.21.71-.86,1.2-1.6,1.2h0c-1.11,0-1.91-1.07-1.59-2.14l7.86-26.22c.21-.7.86-1.18,1.59-1.18h1.59c.73,0,1.38.48,1.59,1.18l7.89,26.22c.32,1.07-.48,2.14-1.59,2.14h-.12c-.73,0-1.38-.48-1.59-1.18l-2.07-6.92c-.21-.7-.86-1.18-1.59-1.18h-6.76c-.74,0-1.39.49-1.6,1.2ZM11.93,34.1c1.11,0,1.91-1.07,1.59-2.14l-1.91-6.36c-.58-1.93-.97-3.68-1.35-5.39h-.08c-.39,1.75-.81,3.55-1.31,5.35l-1.91,6.41c-.32,1.07.48,2.14,1.59,2.14h3.38Z"/>
  <path class="cls-1" d="M42.07,36.97c-1.74.53-5.61,1.23-10.53,1.23-11.06,0-18.26-4.34-18.26-10.83s7.73-11.26,19.7-11.26c3.94,0,7.43.57,9.24,1.1l-1.52,2.98c-1.59-.53-4.09-1.01-7.73-1.01-8.41,0-12.96,3.59-12.96,8.02,0,4.91,5.45,7.93,12.73,7.93,3.79,0,6.29-.57,8.18-1.05l1.14,2.89Z"/>
  <path class="cls-1" d="M51.66,30.33c-.89.53-2.86,1.23-5.37,1.23-5.65,0-9.32-4.34-9.32-10.83s3.94-11.26,10.05-11.26c2.01,0,3.79.57,4.72,1.1l-.77,2.98c-.81-.53-2.09-1.01-3.94-1.01-4.29,0-6.61,3.59-6.61,8.02,0,4.91,2.78,7.93,6.5,7.93,1.93,0,3.21-.57,4.18-1.05l.58,2.89Z"/>
  <path class="cls-1" d="M57.31,21.21c.08,5.22,3.02,7.36,6.42,7.36,2.44,0,3.91-.48,5.18-1.1l.58,2.76c-1.2.61-3.25,1.31-6.23,1.31-5.76,0-9.2-4.3-9.2-10.69s3.32-11.44,8.78-11.44c6.11,0,7.73,6.09,7.73,9.99,0,.79-.08,1.4-.12,1.8h-13.15ZM67.28,18.45c.04-2.45-.89-6.27-4.72-6.27-3.44,0-4.95,3.59-5.22,6.27h9.94Z"/>
  <path class="cls-1" d="M74.32,27.17c1.01.74,2.78,1.53,4.48,1.53,2.47,0,3.64-1.4,3.64-3.16,0-1.84-.97-2.85-3.48-3.9-3.36-1.36-4.95-3.46-4.95-6,0-3.42,2.44-6.22,6.46-6.22,1.89,0,3.56.61,4.6,1.32l-.85,2.8c-.74-.53-2.09-1.23-3.83-1.23-2.01,0-3.13,1.31-3.13,2.89,0,1.75,1.12,2.54,3.56,3.59,3.25,1.4,4.91,3.24,4.91,6.4,0,3.73-2.55,6.35-7,6.35-2.05,0-3.94-.57-5.26-1.45l.85-2.94Z"/>
  <path class="cls-1" d="M89.63,27.17c1.01.74,2.78,1.53,4.48,1.53,2.47,0,3.64-1.4,3.64-3.16,0-1.84-.97-2.85-3.48-3.9-3.36-1.36-4.95-3.46-4.95-6,0-3.42,2.44-6.22,6.46-6.22,1.89,0,3.56.61,4.6,1.32l-.85,2.8c-.74-.53-2.09-1.23-3.83-1.23-2.01,0-3.13,1.31-3.13,2.89,0,1.75,1.12,2.54,3.56,3.59,3.25,1.4,4.91,3.24,4.91,6.4,0,3.73-2.55,6.35-7,6.35-2.05,0-3.94-.57-5.26-1.45l.85-2.94Z"/>
  <path class="cls-1" d="M109.2,3.94c.04,1.31-.81,2.37-2.17,2.37-1.2,0-2.05-1.05-2.05-2.37s.89-2.41,2.13-2.41,2.09,1.05,2.09,2.41ZM105.41,31.12V9.9h3.4v21.21h-3.4Z"/>
  <path class="cls-1" d="M114.3,31.12c.08-1.45.15-3.59.15-5.48V0h3.36v13.32h.08c1.2-2.37,3.36-3.9,6.38-3.9,4.64,0,7.93,4.38,7.89,10.83,0,7.58-4.22,11.35-8.39,11.35-2.71,0-4.87-1.18-6.26-3.99h-.12l-.15,3.51h-2.94ZM117.82,22.61c0,.48.08.96.15,1.4.66,2.67,2.63,4.51,5.1,4.51,3.56,0,5.68-3.29,5.68-8.15,0-4.25-1.93-7.89-5.57-7.89-2.32,0-4.48,1.8-5.18,4.73-.08.44-.19.96-.19,1.58v3.81Z"/>
  <path class="cls-1" d="M140.25,3.94c.04,1.31-.81,2.37-2.17,2.37-1.2,0-2.05-1.05-2.05-2.37s.89-2.41,2.13-2.41,2.09,1.05,2.09,2.41ZM136.46,31.12V9.9h3.4v21.21h-3.4Z"/>
  <path class="cls-1" d="M145.51,0h3.4v31.12h-3.4V0Z"/>
  <path class="cls-1" d="M158.42,3.94c.04,1.31-.81,2.37-2.17,2.37-1.2,0-2.05-1.05-2.05-2.37s.89-2.41,2.13-2.41,2.09,1.05,2.09,2.41ZM154.63,31.12V9.9h3.4v21.21h-3.4Z"/>
  <path class="cls-1" d="M172.02,6.33v6.09h8.19v2.94h-8.19v11.44c0,2.63,1.11,4.12,4.29,4.12,1.5,0,2.6-.13,3.32-.26l.26,2.89c-1.11.31-2.86.53-5.07.53-2.67,0-4.81-.57-6.18-1.62-1.63-1.14-2.21-3.02-2.21-5.52v-11.57h-4.88v-2.94h4.88v-5.08l5.59-1.01Z"/>
  <path class="cls-1" d="M178.06,20.49l4.1,12.53c.43,1.4.89,3.07,1.2,4.34h.08c.35-1.27.74-2.89,1.2-4.43l3.71-12.45h3.6l-5.1,15.12c-2.44,7.28-4.1,11-6.42,13.28-1.66,1.66-3.32,2.32-4.18,2.5l-.85-3.24c.85-.31,1.97-.92,2.98-1.88.93-.83,2.09-2.32,2.86-4.29.15-.39.27-.7.27-.92s-.08-.53-.23-1.01l-6.92-19.55h3.71Z"/>
  <line class="cls-2" x1="20.59" y1="44.23" x2="180.42" y2="48.89"/>
</svg>